HIERARCHY
ROOT Hips
{
  OFFSET 53.8105 85.9249 50.9953
  CHANNELS 6 Xposition Yposition Zposition Zrotation Xrotation Yrotation
  JOINT spine
  {
    OFFSET 0 6.3926 0.367606
    CHANNELS 3 Zrotation Xrotation Yrotation
    JOINT spine1
    {
      OFFSET 0 9.17611 0
      CHANNELS 3 Zrotation Xrotation Yrotation
      JOINT spine2
      {
        OFFSET 0 8.79238 0
        CHANNELS 3 Zrotation Xrotation Yrotation
        JOINT Neck
        {
          OFFSET 0 22.5737 1.07624
          CHANNELS 3 Zrotation Xrotation Yrotation
          JOINT Head
          {
            OFFSET 0 6.82011 0
            CHANNELS 3 Zrotation Xrotation Yrotation
            End Site
            {
              OFFSET 0 16.5085 -5.44427
            }
          }
        }
        JOINT RightShoulder
        {
          OFFSET -3.70221 9.49509 -0.515508
          CHANNELS 3 Zrotation Xrotation Yrotation
          JOINT RightArm
          {
            OFFSET 0 12.4537 0
            CHANNELS 3 Zrotation Xrotation Yrotation
            JOINT RightArmRoll
            {
              OFFSET 0 6.28686 0
              CHANNELS 3 Zrotation Xrotation Yrotation
              JOINT RightForeArm
              {
                OFFSET 0 18.3114 0
                CHANNELS 3 Zrotation Xrotation Yrotation
                JOINT RightForeArmRoll
                {
                  OFFSET 0 7.05482 0
                  CHANNELS 3 Zrotation Xrotation Yrotation
                  JOINT RightHand
                  {
                    OFFSET 0 14.1575 0
                    CHANNELS 3 Zrotation Xrotation Yrotation
                    End Site
                    {
                      OFFSET 0 0 0
                    }
                  }
                }
              }
            }
          }
        }
        JOINT LeftShoulder
        {
          OFFSET 3.70221 9.49509 -0.515508
          CHANNELS 3 Zrotation Xrotation Yrotation
          JOINT LeftArm
          {
            OFFSET 0 12.4537 0
            CHANNELS 3 Zrotation Xrotation Yrotation
            JOINT LeftArmRoll
            {
              OFFSET 0 6.28686 0
              CHANNELS 3 Zrotation Xrotation Yrotation
              JOINT LeftForeArm
              {
                OFFSET 0 18.3114 0
                CHANNELS 3 Zrotation Xrotation Yrotation
                JOINT LeftForeArmRoll
                {
                  OFFSET 0 7.05483 0
                  CHANNELS 3 Zrotation Xrotation Yrotation
                  JOINT LeftHand
                  {
                    OFFSET 0 14.1575 0
                    CHANNELS 3 Zrotation Xrotation Yrotation
                    End Site
                    {
                      OFFSET 0 0 0
                    }
                  }
                }
              }
            }
          }
        }
      }
    }
  }
  JOINT RightUpLeg
  {
    OFFSET -5.66616 -1.03903 -0.87161
    CHANNELS 3 Zrotation Xrotation Yrotation
    JOINT RightUpLegRoll
    {
      OFFSET 0 16.6005 0
      CHANNELS 3 Zrotation Xrotation Yrotation
      JOINT RightLeg
      {
        OFFSET 0 -20.5572 0
        CHANNELS 3 Zrotation Xrotation Yrotation
        JOINT RightLegRoll
        {
          OFFSET 0 20.6244 0
          CHANNELS 3 Zrotation Xrotation Yrotation
          JOINT RightFoot
          {
            OFFSET 0 17.1664 0
            CHANNELS 3 Zrotation Xrotation Yrotation
            JOINT RightToeBase
            {
              OFFSET 0 14.3502 0
              CHANNELS 3 Zrotation Xrotation Yrotation
              End Site
              {
                OFFSET 0.00608252 6.94971 -0.801061
              }
            }
          }
        }
      }
    }
  }
  JOINT LeftUpLeg
  {
    OFFSET 5.66616 -1.03903 -0.87161
    CHANNELS 3 Zrotation Xrotation Yrotation
    JOINT LeftUpLegRoll
    {
      OFFSET 0 16.6006 0
      CHANNELS 3 Zrotation Xrotation Yrotation
      JOINT LeftLeg
      {
        OFFSET 0 20.5571 0
        CHANNELS 3 Zrotation Xrotation Yrotation
        JOINT LeftLegRoll
        {
          OFFSET 0 20.8151 0
          CHANNELS 3 Zrotation Xrotation Yrotation
          JOINT LeftFoot
          {
            OFFSET 0 16.9757 0
            CHANNELS 3 Zrotation Xrotation Yrotation
            JOINT LeftToeBase
            {
              OFFSET 0 14.3502 0
              CHANNELS 3 Zrotation Xrotation Yrotation
              End Site
              {
                OFFSET -0.0272592 6.94971 -0.80106
              }
            }
          }
        }
      }
    }
  }
}
MOTION
Frames: 5
Frame Time: 0.00208333
51.0849 57.4771 9.29691 -0.103288 -11.1959 1.26986 -0.202668 -0.344672 -1.43157 -0.386286 3.31921 -2.84374 -0.352516 4.96342 -2.84019 -10.2795 13.9459 6.7974 8.12418 1.47415 4.06707 75.2521 12.1381 3.37701 93.0544 18.8347 -17.2974 1.57809e-006 3.51063e-007 -3.33888e-006 20.1667 54.4394 -10.9414 -6.3232e-006 4.48841e-006 -3 8.02887 -4.95089 0.697422 -70.2436 -12.3508 7.47431 -97.3399 22.1314 21.8065 5.47181e-006 -1.32378e-006 6.72415e-006 -25.0844 52.2451 15.4222 1.41058e-005 1.69119e-005 3 -8.02889 -4.95085 -0.697389 163.763 66.0286 18.4705 180 1.52563e-005 178.974 176.563 71.9287 -179.727 4.95125e-006 -4.94268e-006 1.12414 -16.5594 65.3369 17.5857 8.12669 25.2335 -3.48355 -150.416 64.7879 -28.2132 -1.07169e-005 -4.64205e-006 -1.07042 3.28291 -74.2625 4.30786 -4.18653e-007 -4.00229e-006 -1.40354 16.0486 63.4081 -16.3505 -8.13671 25.2358 3.48356 
51.0904 57.4801 9.28193 -0.101196 -11.1915 1.27245 -0.202608 -0.345939 -1.43167 -0.386715 3.3172 -2.844 -0.352952 4.96141 -2.84043 -10.2781 13.9542 6.799 8.12841 1.47499 4.0687 75.2528 12.1328 3.37459 93.0579 18.8352 -17.3005 1.57809e-006 3.51063e-007 -3.33888e-006 20.1671 54.4403 -10.9424 -6.3232e-006 4.48841e-006 -3 8.02887 -4.95089 0.697422 -70.2429 -12.3553 7.4766 -97.3426 22.1392 21.8093 5.47181e-006 -1.32378e-006 6.72415e-006 -25.0852 52.2361 15.4191 1.41058e-005 1.69119e-005 3 -8.02889 -4.95085 -0.697389 163.754 66.0323 18.4773 180 1.52563e-005 178.974 176.567 71.929 -179.73 4.95125e-006 -4.94268e-006 1.12425 -16.559 65.3363 17.5851 8.12669 25.2335 -3.48355 -150.422 64.7956 -28.2061 -1.07169e-005 -4.64205e-006 -1.07042 3.28432 -74.2616 4.30833 -4.18653e-007 -4.00229e-006 -1.40354 16.0484 63.4078 -16.3504 -8.13671 25.2358 3.48356 
51.0879 57.4829 9.2837 -0.0991063 -11.1871 1.275 -0.202519 -0.347209 -1.43183 -0.387089 3.31522 -2.8444 -0.353331 4.95943 -2.8408 -10.2774 13.9617 6.80092 8.13341 1.47655 4.07049 75.2533 12.1278 3.37233 93.0616 18.8359 -17.3035 1.57809e-006 3.51063e-007 -3.33888e-006 20.1676 54.441 -10.9434 -6.3232e-006 4.48841e-006 -3 8.02887 -4.95089 0.697422 -70.2422 -12.3605 7.47924 -97.3455 22.1476 21.8124 5.47181e-006 -1.32378e-006 6.72415e-006 -25.0862 52.2268 15.416 1.41058e-005 1.69119e-005 3 -8.02889 -4.95085 -0.697389 163.745 66.0361 18.4837 180 1.52563e-005 178.974 176.571 71.9292 -179.733 4.95125e-006 -4.94268e-006 1.12435 -16.5586 65.3356 17.5844 8.12669 25.2335 -3.48355 -150.427 64.8034 -28.199 -1.07169e-005 -4.64205e-006 -1.07042 3.28577 -74.2607 4.30881 -4.18653e-007 -4.00229e-006 -1.40354 16.0483 63.4076 -16.3502 -8.13671 25.2358 3.48356 
51.0898 57.4721 9.2901 -0.0970174 -11.1826 1.27754 -0.202409 -0.348482 -1.43202 -0.387425 3.31325 -2.84488 -0.353671 4.95747 -2.84126 -10.2773 13.9686 6.80307 8.13894 1.47861 4.07238 75.2536 12.123 3.37018 93.0655 18.8367 -17.3064 1.57809e-006 3.51063e-007 -3.33888e-006 20.168 54.4416 -10.9444 -6.3232e-006 4.48841e-006 -3 8.02887 -4.95089 0.697422 -70.2415 -12.3662 7.48213 -97.3485 22.1563 21.8158 5.47181e-006 -1.32378e-006 6.72415e-006 -25.0872 52.2172 15.4128 1.41058e-005 1.69119e-005 3 -8.02889 -4.95085 -0.697389 163.736 66.0398 18.49 180 1.52563e-005 178.974 176.576 71.9294 -179.737 4.95125e-006 -4.94268e-006 1.12446 -16.5582 65.335 17.5838 8.12669 25.2335 -3.48355 -150.433 64.8113 -28.1918 -1.07169e-005 -4.64205e-006 -1.07042 3.28725 -74.2597 4.3093 -4.18653e-007 -4.00229e-006 -1.40353 16.0481 63.4073 -16.35 -8.13671 25.2358 3.48356 
51.0906 57.4709 9.29227 -0.0949293 -11.1781 1.28007 -0.202288 -0.349756 -1.43224 -0.387739 3.3113 -2.84542 -0.353989 4.95551 -2.84177 -10.2775 13.9752 6.80536 8.14476 1.48096 4.07433 75.2539 12.1182 3.3681 93.0695 18.8376 -17.3093 1.57809e-006 3.51063e-007 -3.33888e-006 20.1685 54.4421 -10.9455 -6.3232e-006 4.48841e-006 -3 8.02887 -4.95089 0.697422 -70.2409 -12.3722 7.48517 -97.3516 22.1652 21.8193 5.47181e-006 -1.32378e-006 6.72415e-006 -25.0882 52.2075 15.4095 1.41058e-005 1.69119e-005 3 -8.02889 -4.95085 -0.697389 163.728 66.0435 18.4962 180 1.52563e-005 178.974 176.58 71.9296 -179.74 4.95125e-006 -4.94268e-006 1.12457 -16.5577 65.3343 17.5831 8.12669 25.2335 -3.48355 -150.438 64.8192 -28.1846 -1.07169e-005 -4.64205e-006 -1.07042 3.28874 -74.2588 4.30979 -4.18653e-007 -4.00229e-006 -1.40353 16.048 63.4071 -16.3499 -8.13671 25.2358 3.48356 
